<?xml version="1.0" encoding="utf-8"?>
<!-- Svg Vector Icons : http://www.onlinewebfonts.com/icon -->
<!DOCTYPE svg PUBLIC "-//W3C//DTD SVG 1.1//EN" "http://www.w3.org/Graphics/SVG/1.1/DTD/svg11.dtd">
<svg version="1.1" xmlns="http://www.w3.org/2000/svg" xmlns:xlink="http://www.w3.org/1999/xlink" x="0px" y="0px" viewBox="0 0 1000 1000" enable-background="new 0 0 1000 1000" xml:space="preserve">
<metadata> Svg Vector Icons : http://www.onlinewebfonts.com/icon </metadata>
<g><g><g><path d="M68.8,617.6c-32.5,0-58.8,26.3-58.8,58.8c0,32.5,26.3,58.8,58.8,58.8h152l-28.1,28.1c-23,23-23,60.2,0,83.2c11.5,11.5,26.5,17.2,41.6,17.2c15,0,30.1-5.8,41.6-17.2l111.3-111.3h544c32.5,0,58.8-26.3,58.8-58.8c0-32.5-26.3-58.8-58.8-58.8H504.8l156.8-156.8h269.6c32.5,0,58.8-26.3,58.8-58.8c0-32.5-26.3-58.8-58.8-58.8h-152l106.5-106.5c23-23,23-60.2,0-83.2c-23-23-60.2-23-83.1,0L612.9,343.2H68.8C36.3,343.2,10,369.5,10,402c0,32.5,26.3,58.8,58.8,58.8h426.4L338.4,617.6H68.8z"/></g></g><g></g><g></g><g></g><g></g><g></g><g></g><g></g><g></g><g></g><g></g><g></g><g></g><g></g><g></g><g></g></g>
</svg>